# Blender v2.90.1 OBJ File: 'untitled.blend'
# www.blender.org
mtllib badflagpole.mtl
o Cube
v 0.678839 1.000000 -0.678839
v 1.000000 0.321383 -1.000000
v 0.678839 1.000000 0.678839
v 1.000000 0.321383 1.000000
v -0.678839 1.000000 -0.678839
v -1.000000 0.321383 -1.000000
v -0.678839 1.000000 0.678839
v -1.000000 0.321383 1.000000
v 1.000000 1.000000 1.000000
v -1.000000 1.000000 1.000000
v 1.000000 1.000000 -1.000000
v -1.000000 1.000000 -1.000000
v 0.001745 3.448637 0.064547
v 0.032569 3.448637 0.055228
v 0.055228 3.448637 0.032569
v 0.064547 3.448637 0.001745
v 0.186480 1.572431 0.186480
v -0.186480 1.572431 0.186480
v 0.186480 1.572431 -0.186480
v -0.186480 1.572431 -0.186480
v 0.108955 1.572431 0.108955
v 0.064547 1.572431 0.001745
v 0.001745 1.572431 0.064547
v 0.087276 1.572431 0.078069
v 0.078069 1.572431 0.087276
v 0.069880 1.572431 0.069880
v 0.055228 1.572431 0.032569
v 0.071057 1.572431 0.038913
v 0.062338 1.572431 0.051890
v 0.038913 1.572431 0.071057
v 0.032569 1.572431 0.055228
v 0.051890 1.572431 0.062338
v -0.001745 1.572431 0.064547
v -0.064547 1.572431 0.001745
v -0.108955 1.572431 0.108955
v -0.032569 1.572431 0.055228
v -0.038913 1.572431 0.071057
v -0.051890 1.572431 0.062338
v -0.071057 1.572431 0.038913
v -0.055228 1.572431 0.032569
v -0.062338 1.572431 0.051890
v -0.078069 1.572431 0.087276
v -0.087276 1.572431 0.078069
v -0.069880 1.572431 0.069880
v 0.108955 1.572431 -0.108955
v 0.001745 1.572431 -0.064547
v 0.064547 1.572431 -0.001745
v 0.078069 1.572431 -0.087276
v 0.087276 1.572431 -0.078069
v 0.069880 1.572431 -0.069880
v 0.032569 1.572431 -0.055228
v 0.038913 1.572431 -0.071057
v 0.051890 1.572431 -0.062338
v 0.071057 1.572431 -0.038913
v 0.055228 1.572431 -0.032569
v 0.062338 1.572431 -0.051890
v -0.064547 1.572431 -0.001745
v -0.001745 1.572431 -0.064547
v -0.108955 1.572431 -0.108955
v -0.055228 1.572431 -0.032569
v -0.071057 1.572431 -0.038913
v -0.062338 1.572431 -0.051890
v -0.038913 1.572431 -0.071057
v -0.032569 1.572431 -0.055228
v -0.051890 1.572431 -0.062338
v -0.087276 1.572431 -0.078069
v -0.078069 1.572431 -0.087276
v -0.069880 1.572431 -0.069880
v -0.001745 3.448637 0.064547
v -0.032569 3.448637 0.055228
v -0.055228 3.448637 0.032569
v -0.064547 3.448637 0.001745
v 0.001745 3.448637 -0.064547
v 0.032569 3.448637 -0.055228
v 0.055228 3.448637 -0.032569
v 0.064547 3.448637 -0.001745
v -0.064547 3.448637 -0.001745
v -0.055228 3.448637 -0.032569
v -0.032569 3.448637 -0.055228
v -0.001745 3.448637 -0.064547
v 0.032569 2.945267 -0.055228
v 0.055228 2.945267 -0.032569
v -0.032569 2.945267 -0.055228
v -0.001745 2.945267 -0.064547
v 0.001745 2.945267 -0.064547
v 0.055228 2.945267 0.032569
v 0.032569 2.945267 0.055228
v -0.055228 2.945267 0.032569
v -0.064547 2.945267 0.001745
v -0.064547 2.945267 -0.001745
v -0.055228 2.945267 -0.032569
v -0.001745 2.945267 0.064547
v -0.032569 2.945267 0.055228
v 0.064547 2.945267 -0.001745
v 0.001745 2.945267 0.064547
v 0.064547 2.945267 0.001745
v 0.001745 3.448637 -1.079307
v -0.001745 3.448637 -1.079307
v -0.001745 2.945267 -1.079307
v 0.001745 2.945267 -1.079307
vt 0.824133 0.604251
vt 0.824133 0.895788
vt 0.704082 0.818814
vt 0.704082 0.738727
vt 0.419442 0.000000
vt 0.561762 0.000000
vt 0.561762 0.445062
vt 0.419442 0.445062
vt 0.704082 0.874527
vt 0.561762 0.874527
vt 0.561762 0.445062
vt 0.704082 0.445062
vt 0.000000 0.890124
vt 0.000000 0.445062
vt 0.419442 0.445062
vt 0.419442 0.890123
vt 0.561762 0.000000
vt 0.704082 0.000000
vt 0.704082 0.445062
vt 0.561762 0.445062
vt 0.561762 0.869572
vt 0.419442 0.869572
vt 0.419442 0.445062
vt 0.561762 0.445062
vt 0.067354 0.373594
vt 0.352088 0.373594
vt 0.419442 0.445062
vt 0.000000 0.445062
vt 0.067354 0.071468
vt 0.000000 0.000000
vt 0.352088 0.071468
vt 0.419442 0.000000
vt 0.435700 0.886824
vt 0.440247 0.893697
vt 0.443648 0.902410
vt 0.445014 0.910681
vt 0.445014 0.911458
vt 0.443648 0.919729
vt 0.440247 0.928442
vt 0.435700 0.935315
vt 0.419442 0.952567
vt 0.419442 0.869572
vt 0.824133 0.000000
vt 0.824133 0.302125
vt 0.704082 0.192560
vt 0.704082 0.109565
vt 0.944184 0.000000
vt 0.944184 0.288174
vt 0.824133 0.216578
vt 0.824133 0.137416
vt 0.824133 0.604251
vt 0.704082 0.494686
vt 0.704082 0.411691
vt 0.976835 0.723012
vt 0.981587 0.723012
vt 0.981587 0.835027
vt 0.976835 0.835027
vt 0.481400 0.935315
vt 0.476854 0.928442
vt 0.473453 0.919729
vt 0.472087 0.911458
vt 0.472087 0.910681
vt 0.473453 0.902410
vt 0.476854 0.893697
vt 0.481400 0.886824
vt 0.497659 0.869572
vt 0.497659 0.952567
vt 0.474923 0.891648
vt 0.466711 0.895257
vt 0.458916 0.896706
vt 0.458185 0.896706
vt 0.450389 0.895257
vt 0.442178 0.891648
vt 0.851203 0.759757
vt 0.849628 0.766725
vt 0.845161 0.772053
vt 0.838821 0.774522
vt 0.838090 0.774567
vt 0.831523 0.772896
vt 0.826503 0.768156
vt 0.824175 0.761428
vt 0.824133 0.760653
vt 0.825708 0.753685
vt 0.830175 0.748358
vt 0.836515 0.745888
vt 0.837246 0.745843
vt 0.843813 0.747514
vt 0.848834 0.752255
vt 0.851161 0.758982
vt 0.443895 0.926620
vt 0.442178 0.930491
vt 0.445477 0.922617
vt 0.446968 0.918317
vt 0.451720 0.923360
vt 0.447668 0.924942
vt 0.458185 0.925433
vt 0.450389 0.926882
vt 0.458916 0.925433
vt 0.465381 0.923360
vt 0.469433 0.924942
vt 0.466711 0.926882
vt 0.470133 0.918317
vt 0.471624 0.922617
vt 0.473206 0.926620
vt 0.474923 0.930491
vt 0.443895 0.895519
vt 0.447668 0.897198
vt 0.451720 0.898780
vt 0.446968 0.903822
vt 0.445477 0.899523
vt 0.470133 0.903822
vt 0.471624 0.899523
vt 0.465381 0.898780
vt 0.469433 0.897198
vt 0.473206 0.895519
vt 0.956897 0.529529
vt 0.950144 0.529529
vt 0.950144 0.417514
vt 0.956897 0.417514
vt 0.851935 0.971659
vt 0.851203 0.971659
vt 0.851203 0.745843
vt 0.851935 0.745843
vt 0.986339 0.529529
vt 0.981587 0.529529
vt 0.981587 0.417514
vt 0.986339 0.417514
vt 0.950615 0.305498
vt 0.957366 0.305498
vt 0.957366 0.417514
vt 0.950615 0.417514
vt 0.949909 0.305498
vt 0.949909 0.417514
vt 0.944184 0.305498
vt 0.944184 0.417514
vt 1.000000 0.529529
vt 0.993535 0.529529
vt 0.993535 0.417514
vt 1.000000 0.417514
vt 0.970370 0.723012
vt 0.970370 0.835027
vt 0.992804 0.529529
vt 0.992804 0.417514
vt 0.944184 0.529529
vt 0.963174 0.529529
vt 0.957595 0.529529
vt 0.957595 0.417514
vt 0.963174 0.417514
vt 0.963198 0.305498
vt 0.963198 0.417514
vt 0.963174 0.723012
vt 0.969638 0.723012
vt 0.969639 0.835027
vt 0.963174 0.835027
vt 0.969638 0.417514
vt 0.970370 0.417514
vt 0.963174 0.417514
vt 0.957366 0.000000
vt 0.963198 0.000000
vt 0.963174 0.835027
vt 0.957595 0.835027
vt 0.993535 0.835027
vt 0.992804 0.835027
vt 0.950144 0.835027
vt 0.944184 0.835027
vt 0.986339 0.835027
vt 0.976835 0.417514
vt 1.000000 0.835027
vt 0.944184 0.000000
vt 0.949909 0.000000
vt 0.950615 0.000000
vt 0.981587 0.835027
vt 0.956897 0.835027
vt 0.981587 0.417514
vt 0.852633 0.857858
vt 0.851935 0.857858
vt 0.851935 0.745843
vt 0.852633 0.745843
vt 0.929700 0.745843
vt 0.824133 0.745843
vt 0.824133 0.527941
vt 0.929700 0.527941
vt 0.851203 0.999955
vt 0.850473 1.000000
vt 0.824133 0.302125
vt 0.929700 0.302125
vt 0.929700 0.527941
vt 0.824133 0.527941
vn -0.7581 0.6521 0.0000
vn 0.0000 0.0000 1.0000
vn -1.0000 0.0000 0.0000
vn 0.0000 -1.0000 0.0000
vn 1.0000 0.0000 0.0000
vn 0.0000 0.0000 -1.0000
vn 0.0000 1.0000 0.0000
vn 0.0000 0.6521 0.7581
vn 0.0000 0.6521 -0.7581
vn 0.7581 0.6521 0.0000
vn 0.7071 0.0000 -0.7071
vn -0.2894 0.0000 -0.9572
vn 0.7071 0.0000 0.7071
vn -0.9572 0.0000 0.2894
vn -0.9572 0.0000 -0.2894
vn -0.2894 0.0000 0.9572
vn 0.9572 0.0000 -0.2894
vn 0.2894 0.0000 0.9572
vn -0.7071 0.0000 -0.7071
vn 0.2894 0.0000 -0.9572
vn -0.7071 0.0000 0.7071
vn 0.9572 0.0000 0.2894
usemtl Material
s off
f 5/1/1 7/2/1 18/3/1 20/4/1
f 4/5/2 9/6/2 10/7/2 8/8/2
f 8/9/3 10/10/3 12/11/3 6/12/3
f 6/13/4 2/14/4 4/15/4 8/16/4
f 2/17/5 11/18/5 9/19/5 4/20/5
f 6/21/6 12/22/6 11/23/6 2/24/6
f 3/25/7 7/26/7 10/27/7 9/28/7
f 1/29/7 3/25/7 9/28/7 11/30/7
f 7/26/7 5/31/7 12/32/7 10/27/7
f 5/31/7 1/29/7 11/30/7 12/32/7
f 45/33/7 49/34/7 54/35/7 47/36/7 22/37/7 28/38/7 24/39/7 21/40/7 17/41/7 19/42/7
f 7/43/8 3/44/8 17/45/8 18/46/8
f 1/47/9 5/48/9 20/49/9 19/50/9
f 3/44/10 1/51/10 19/52/10 17/53/10
f 82/54/11 81/55/11 74/56/11 75/57/11
f 35/58/7 43/59/7 39/60/7 34/61/7 57/62/7 61/63/7 66/64/7 59/65/7 20/66/7 18/67/7
f 59/65/7 67/68/7 63/69/7 58/70/7 46/71/7 52/72/7 48/73/7 45/33/7 19/42/7 20/66/7
f 76/74/7 75/75/7 74/76/7 73/77/7 80/78/7 79/79/7 78/80/7 77/81/7 72/82/7 71/83/7 70/84/7 69/85/7 13/86/7 14/87/7 15/88/7 16/89/7
f 21/40/7 24/39/7 26/90/7 25/91/7
f 24/39/7 28/38/7 29/92/7 26/90/7
f 22/37/7 27/93/7 29/92/7 28/38/7
f 27/93/7 31/94/7 32/95/7 29/92/7
f 23/96/7 30/97/7 32/95/7 31/94/7
f 30/97/7 25/91/7 26/90/7 32/95/7
f 26/90/7 29/92/7 32/95/7
f 33/98/7 36/99/7 38/100/7 37/101/7
f 36/99/7 40/102/7 41/103/7 38/100/7
f 34/61/7 39/60/7 41/103/7 40/102/7
f 39/60/7 43/59/7 44/104/7 41/103/7
f 35/58/7 42/105/7 44/104/7 43/59/7
f 42/105/7 37/101/7 38/100/7 44/104/7
f 38/100/7 41/103/7 44/104/7
f 45/33/7 48/73/7 50/106/7 49/34/7
f 48/73/7 52/72/7 53/107/7 50/106/7
f 46/71/7 51/108/7 53/107/7 52/72/7
f 51/108/7 55/109/7 56/110/7 53/107/7
f 47/36/7 54/35/7 56/110/7 55/109/7
f 54/35/7 49/34/7 50/106/7 56/110/7
f 50/106/7 53/107/7 56/110/7
f 57/62/7 60/111/7 62/112/7 61/63/7
f 60/111/7 64/113/7 65/114/7 62/112/7
f 58/70/7 63/69/7 65/114/7 64/113/7
f 63/69/7 67/68/7 68/115/7 65/114/7
f 59/65/7 66/64/7 68/115/7 67/68/7
f 66/64/7 61/63/7 62/112/7 68/115/7
f 62/112/7 65/114/7 68/115/7
f 21/40/7 25/91/7 30/97/7 23/96/7 33/98/7 37/101/7 42/105/7 35/58/7 18/67/7 17/41/7
f 84/116/12 83/117/12 79/118/12 80/119/12
f 85/120/4 84/121/4 99/122/4 100/123/4
f 87/124/13 86/125/13 15/126/13 14/127/13
f 89/128/14 88/129/14 71/130/14 72/131/14
f 90/132/3 89/128/3 72/131/3 77/133/3
f 91/134/15 90/132/15 77/133/15 78/135/15
f 93/136/16 92/137/16 69/138/16 70/139/16
f 94/140/17 82/54/17 75/57/17 76/141/17
f 95/142/18 87/124/18 14/127/18 13/143/18
f 83/117/19 91/144/19 78/135/19 79/118/19
f 92/137/2 95/142/2 13/143/2 69/138/2
f 81/145/20 85/146/20 73/147/20 74/148/20
f 88/129/21 93/149/21 70/150/21 71/130/21
f 86/151/22 96/152/22 16/153/22 15/154/22
f 96/152/5 94/140/5 76/141/5 16/153/5
f 22/155/5 47/156/5 94/140/5 96/152/5
f 27/157/22 22/155/22 96/152/22 86/151/22
f 40/158/21 36/159/21 93/149/21 88/129/21
f 51/160/20 46/161/20 85/146/20 81/145/20
f 33/162/2 23/163/2 95/142/2 92/137/2
f 64/164/19 60/165/19 91/144/19 83/117/19
f 23/163/18 31/166/18 87/124/18 95/142/18
f 47/156/17 55/167/17 82/54/17 94/140/17
f 36/168/16 33/162/16 92/137/16 93/136/16
f 60/169/15 57/170/15 90/132/15 91/134/15
f 57/170/3 34/171/3 89/128/3 90/132/3
f 34/171/14 40/158/14 88/129/14 89/128/14
f 31/166/13 27/172/13 86/125/13 87/124/13
f 46/161/6 58/173/6 84/116/6 85/146/6
f 58/173/12 64/164/12 83/117/12 84/116/12
f 55/167/11 51/174/11 81/55/11 82/54/11
f 100/175/6 99/176/6 98/177/6 97/178/6
f 84/179/3 80/180/3 98/181/3 99/182/3
f 80/78/7 73/77/7 97/183/7 98/184/7
f 73/185/5 85/186/5 100/187/5 97/188/5
