# Blender v2.90.1 OBJ File: 'simplePerson.blend'
# www.blender.org
mtllib body.mtl
o body_Cube
v 0.531474 3.591587 -0.531474
v 0.531474 3.591587 0.531474
v -0.531474 3.591587 -0.531474
v -0.531474 3.591587 0.531474
v -0.531474 3.179596 -0.531474
v -0.531474 3.179596 0.531474
v 0.531474 3.179596 -0.531474
v 0.531474 3.179596 0.531474
v -0.531474 2.672235 -1.695578
v -0.531474 2.672235 1.695578
v 0.531474 2.672235 -1.695578
v 0.531474 2.672235 1.695578
v -0.531474 -1.119193 -1.695578
v -0.531474 -1.119193 1.695578
v 0.531474 -1.119193 -1.695578
v 0.531474 -1.119193 1.695578
vt 0.486194 0.581439
vt 0.486194 0.712636
vt 0.433679 0.712636
vt 0.433679 0.581439
vt 0.148383 0.050851
vt 0.283872 0.050851
vt 0.432255 0.113473
vt 0.000000 0.113473
vt 0.580638 0.000000
vt 0.716128 0.000000
vt 0.716128 0.050851
vt 0.580639 0.050851
vt 0.148383 0.000000
vt 0.283872 0.000000
vt 0.381165 0.712636
vt 0.381165 0.581439
vt 0.433679 0.581439
vt 0.433679 0.712636
vt 0.864511 0.467966
vt 1.000000 0.467966
vt 1.000000 0.935932
vt 0.864511 0.935932
vt 0.270978 0.712636
vt 0.270978 0.581439
vt 0.381165 0.581439
vt 0.381165 0.712636
vt 0.135489 0.581439
vt 0.270978 0.581439
vt 0.270978 0.738175
vt 0.135489 0.738175
vt 0.864511 0.113473
vt 0.432255 0.113473
vt 0.000000 0.581439
vt 0.135489 0.581439
vt 0.135489 1.000000
vt 0.000000 1.000000
vt 0.864511 0.000000
vt 1.000000 0.000000
vt 1.000000 0.467966
vt 0.864511 0.467966
vt 0.864511 0.581439
vt 0.432256 0.581439
vt 0.432255 0.581439
vt 0.000000 0.581439
vn 0.0000 0.0000 1.0000
vn 1.0000 0.0000 0.0000
vn -1.0000 0.0000 0.0000
vn 0.0000 0.0000 -1.0000
vn 0.0000 0.9167 -0.3995
vn 0.0000 0.9167 0.3995
vn 0.0000 -1.0000 0.0000
usemtl Material.002
s off
f 2/1/1 4/2/1 6/3/1 8/4/1
f 7/5/2 8/6/2 12/7/2 11/8/2
f 4/9/3 3/10/3 5/11/3 6/12/3
f 1/13/2 2/14/2 8/6/2 7/5/2
f 3/15/4 1/16/4 7/17/4 5/18/4
f 9/19/4 11/20/4 15/21/4 13/22/4
f 5/23/5 7/24/5 11/25/5 9/26/5
f 8/27/6 6/28/6 10/29/6 12/30/6
f 6/12/3 5/11/3 9/31/3 10/32/3
f 13/33/7 15/34/7 16/35/7 14/36/7
f 12/37/1 10/38/1 14/39/1 16/40/1
f 10/32/3 9/31/3 13/41/3 14/42/3
f 11/8/2 12/7/2 16/43/2 15/44/2
