# Blender v2.90.1 OBJ File: 'dicebox.blend'
# www.blender.org
mtllib dicebox.mtl
o Cube
v -4.656286 1.400257 -8.397555
v -5.177615 -1.400257 -9.337766
v -4.656286 1.400257 8.397555
v -5.177615 -1.400257 9.337766
v 4.656286 1.400257 -8.397555
v 5.177615 -1.400257 -9.337766
v 4.656286 1.400257 8.397555
v 5.177615 -1.400257 9.337766
v -5.177615 1.400257 9.337766
v 5.177615 1.400257 9.337766
v -5.177615 1.400257 -9.337766
v 5.177615 1.400257 -9.337766
v -4.656286 -0.779766 8.397555
v 4.656286 -0.779766 8.397555
v -4.656286 -0.779766 -8.397555
v 4.656286 -0.779766 -8.397555
v -5.177615 -1.400257 -6.345585
v -5.177615 1.400257 -6.345585
v -4.656286 1.400257 -6.345977
v -4.656286 -0.779766 -6.345977
v 5.177615 -1.400257 -6.345585
v -5.177615 -1.400257 -4.613351
v 5.177615 1.400257 -6.345585
v -5.177615 1.400257 -4.613351
v -4.656286 1.400257 -4.593665
v 4.656286 1.400257 -6.345977
v -4.656286 -0.779766 -4.593665
v 4.656286 -0.779766 -6.345977
v 5.177615 -1.400257 -4.613351
v 5.177615 1.400257 -4.613351
v 4.656286 1.400257 -4.593665
v 4.656286 -0.779766 -4.593665
v 0.000000 -1.400257 -9.337766
v -5.177615 -1.400257 6.345585
v -5.177615 1.400257 6.345585
v 0.000000 1.400257 -9.337766
v -4.656286 1.400257 6.345977
v 0.000000 1.400257 -8.397555
v -4.656286 -0.779766 6.345977
v 0.000000 -0.779766 -8.397555
v 0.000000 -0.779766 -6.345977
v 0.000000 -1.400257 -6.701036
v 0.000000 -0.779766 -4.593665
v 0.000000 -1.400257 -4.860667
v 5.177615 -1.400257 0.000000
v -4.656286 -0.779766 0.000001
v -4.656286 1.400257 0.000001
v 5.177615 1.400257 0.000000
v 4.656286 1.400257 0.000001
v 4.656286 -0.779766 0.000001
v 0.000000 -0.779766 0.000000
v 0.000000 -1.400257 0.000000
v -5.177615 -1.400257 0.000000
v -5.177615 1.400257 0.000000
v 5.177615 -1.400257 6.345585
v -5.177615 -1.400257 4.613351
v 5.177615 1.400257 6.345585
v -5.177615 1.400257 4.613351
v -4.656286 1.400257 4.593665
v 4.656286 1.400257 6.345977
v -4.656286 -0.779766 4.593665
v 4.656286 -0.779766 6.345977
v 5.177615 -1.400257 4.613351
v 5.177615 1.400257 4.613351
v 4.656286 1.400257 4.593665
v 4.656286 -0.779766 4.593665
v 0.000000 -1.400257 9.337766
v 0.000000 1.400257 9.337766
v 0.000000 1.400257 8.397555
v 0.000000 -0.779766 8.397555
v 0.000000 -0.779766 6.345977
v 0.000000 -1.400257 6.701036
v 0.000000 -0.779766 4.593665
v 0.000000 -1.400257 4.860667
v -5.177615 2.400757 -4.613351
v -5.177615 2.400757 -6.345585
v -5.177615 2.400757 4.613351
v -4.656286 1.651025 4.593665
v -4.656286 1.651025 -6.345977
v -4.656286 1.651025 -4.593665
v -5.177615 2.400757 6.345585
v -4.656286 1.651025 6.345977
vt 0.683594 0.156250
vt 0.683594 0.250000
vt 0.738281 0.250000
vt 0.738281 0.156250
vt 0.976562 0.468750
vt 0.976562 0.285156
vt 0.949219 0.285156
vt 0.949219 0.468750
vt 0.011719 0.550781
vt 0.011719 0.574219
vt 0.222656 0.574219
vt 0.222656 0.550781
vt 0.234375 0.230469
vt 0.234375 0.406250
vt 0.273438 0.406250
vt 0.273438 0.230469
vt 0.761719 0.070312
vt 0.761719 0.097656
vt 0.949219 0.097656
vt 0.949219 0.070312
vt 0.632812 0.156250
vt 0.632812 0.250000
vt 0.023438 0.316406
vt 0.023438 0.343750
vt 0.148438 0.343750
vt 0.148438 0.316406
vt 0.011719 0.574219
vt 0.222656 0.574219
vt 0.222656 0.683594
vt 0.011719 0.683594
vt 0.187500 0.300781
vt 0.175781 0.300781
vt 0.175781 0.355469
vt 0.187500 0.339844
vt 0.761719 0.468750
vt 0.789062 0.468750
vt 0.789062 0.285156
vt 0.761719 0.285156
vt 0.750000 0.512586
vt 0.862414 0.512586
vt 0.862414 0.540049
vt 0.750000 0.540050
vt 0.750000 0.540050
vt 0.862414 0.540049
vt 0.862414 0.563507
vt 0.750000 0.563507
vt 0.187500 0.082031
vt 0.187500 0.042969
vt 0.175781 0.027344
vt 0.175781 0.082031
vt 0.750000 0.512586
vt 0.862414 0.512586
vt 0.187500 0.046875
vt 0.187500 0.191406
vt 0.171875 0.191406
vt 0.171875 0.027344
vt 0.761719 0.285156
vt 0.949219 0.285156
vt 0.949219 0.257812
vt 0.761719 0.257812
vt 0.023438 0.316406
vt 0.148438 0.316406
vt 0.148438 0.343750
vt 0.023438 0.343750
vt 0.862414 0.540049
vt 0.862414 0.512586
vt 0.187500 0.273438
vt 0.175781 0.273438
vt 0.636719 0.820312
vt 0.636719 0.785156
vt 0.601562 0.785156
vt 0.601562 0.820312
vt 0.671875 0.757812
vt 0.671875 0.835938
vt 0.679688 0.777344
vt 0.679688 0.757812
vt 0.011719 0.531250
vt 0.222656 0.531250
vt 0.222656 0.550781
vt 0.011719 0.550781
vt 0.011719 0.531250
vt 0.222656 0.531250
vt 0.011719 0.476562
vt 0.222656 0.476562
vt 0.187500 0.191406
vt 0.175781 0.191406
vt 0.949219 0.234375
vt 0.761719 0.234375
vt 0.862414 0.563507
vt 0.148438 0.371094
vt 0.023438 0.371094
vt 0.011719 0.574219
vt 0.011719 0.683594
vt 0.222656 0.683594
vt 0.222656 0.574219
vt 0.023438 0.343750
vt 0.023438 0.371094
vt 0.011719 0.476562
vt 0.222656 0.476562
vt 0.812500 0.468750
vt 0.812500 0.285156
vt 0.058594 0.160156
vt 0.058594 0.242188
vt 0.097656 0.281250
vt 0.097656 0.160156
vt 0.862414 0.540049
vt 0.862414 0.512586
vt 0.187500 0.109375
vt 0.175781 0.109375
vt 0.187500 0.335938
vt 0.171875 0.355469
vt 0.750000 0.563507
vt 0.862414 0.563507
vt 0.191406 0.335938
vt 0.175781 0.355469
vt 0.175781 0.191406
vt 0.191406 0.191406
vt 0.011719 0.531250
vt 0.011719 0.550781
vt 0.222656 0.550781
vt 0.222656 0.531250
vt 0.023438 0.316406
vt 0.683594 0.062500
vt 0.632812 0.062500
vt 0.632812 0.156250
vt 0.683594 0.156250
vt 0.148438 0.437500
vt 0.023438 0.433594
vt 0.750000 0.625000
vt 0.862414 0.625000
vt 0.949219 0.175781
vt 0.761719 0.175781
vt 0.273438 0.054688
vt 0.234375 0.054688
vt 0.011719 0.550781
vt 0.222656 0.550781
vt 0.222656 0.574219
vt 0.011719 0.574219
vt 0.871094 0.468750
vt 0.871094 0.285156
vt 0.862414 0.625000
vt 0.738281 0.156250
vt 0.738281 0.058594
vt 0.023438 0.433594
vt 0.011719 0.531250
vt 0.222656 0.531250
vt 0.761719 0.117188
vt 0.949219 0.117188
vt 0.862414 0.563507
vt 0.023438 0.371094
vt 0.148438 0.371094
vt 0.023438 0.343750
vt 0.023438 0.371094
vt 0.929688 0.285156
vt 0.929688 0.468750
vt 0.058594 0.160156
vt 0.097656 0.160156
vt 0.097656 0.281250
vt 0.058594 0.242188
vt 0.191406 0.046875
vt 0.023438 0.316406
vt 0.410156 0.753906
vt 0.410156 0.828125
vt 0.558594 0.828125
vt 0.558594 0.753906
vt 0.410156 0.753906
vt 0.558594 0.753906
vt 0.558594 0.828125
vt 0.410156 0.828125
vt 0.679688 0.757812
vt 0.679688 0.777344
vt 0.691406 0.835938
vt 0.691406 0.757812
vt 0.691406 0.757812
vt 0.691406 0.835938
vt 0.703125 0.777344
vt 0.703125 0.757812
vt 0.742188 0.835938
vt 0.742188 0.742188
vt 0.722656 0.742188
vt 0.722656 0.835938
vt 0.765625 0.835938
vt 0.765625 0.742188
vt 0.746094 0.742188
vt 0.746094 0.835938
vt 0.660156 0.757812
vt 0.660156 0.777344
vt 0.671875 0.835938
vt 0.671875 0.757812
vt 0.636719 0.785156
vt 0.636719 0.750000
vt 0.601562 0.750000
vt 0.601562 0.785156
vn 0.0000 0.0000 1.0000
vn 1.0000 0.0000 0.0000
vn 0.0000 1.0000 0.0000
vn -1.0000 0.0000 0.0000
vn 0.0000 -1.0000 0.0000
vn 0.0000 0.0000 -1.0000
vn -0.0008 0.0000 -1.0000
vn 0.8210 0.5709 0.0000
vn -0.0377 0.0000 0.9993
vn -0.0377 0.0000 -0.9993
vn -0.0008 0.0000 1.0000
usemtl Material
s off
f 38/1/1 40/2/1 16/3/1 5/4/1
f 3/5/2 13/6/2 39/7/2 37/8/2
f 21/9/2 6/10/2 12/11/2 23/12/2
f 47/13/3 25/14/3 24/15/3 54/16/3
f 7/17/4 60/18/4 62/19/4 14/20/4
f 38/1/1 1/21/1 15/22/1 40/2/1
f 4/23/5 34/24/5 72/25/5 67/26/5
f 2/27/6 11/28/6 36/29/6 33/30/6
f 26/31/3 23/32/3 12/33/3 5/34/3
f 1/35/2 19/36/2 20/37/2 15/38/2
f 70/39/3 14/40/3 62/41/3 71/42/3
f 41/43/3 20/44/3 27/45/3 43/46/3
f 60/47/3 7/48/3 10/49/3 57/50/3
f 40/51/3 15/52/3 20/44/3 41/43/3
f 1/53/3 38/54/3 36/55/3 11/56/3
f 5/57/4 16/58/4 28/59/4 26/60/4
f 2/61/5 33/62/5 42/63/5 17/64/5
f 40/51/3 41/43/3 28/65/3 16/66/3
f 31/67/3 30/68/3 23/32/3 26/31/3
f 59/69/2 78/70/2 82/71/2 37/72/2
f 18/73/7 76/74/7 79/75/7 19/76/7
f 22/77/4 24/78/4 18/79/4 17/80/4
f 29/81/2 21/9/2 23/12/2 30/82/2
f 45/83/2 29/81/2 30/82/2 48/84/2
f 49/85/3 48/86/3 30/68/3 31/67/3
f 17/80/4 18/79/4 11/28/4 2/27/4
f 26/60/4 28/59/4 32/87/4 31/88/4
f 41/43/3 43/46/3 32/89/3 28/65/3
f 17/64/5 42/63/5 44/90/5 22/91/5
f 4/92/1 67/93/1 68/94/1 9/95/1
f 21/96/5 29/97/5 44/90/5 42/63/5
f 53/98/4 54/99/4 24/78/4 22/77/4
f 19/36/2 25/100/2 27/101/2 20/37/2
f 19/102/3 1/103/3 11/104/3 18/105/3
f 70/39/3 71/42/3 39/106/3 13/107/3
f 65/108/3 60/47/3 57/50/3 64/109/3
f 5/110/3 12/111/3 36/55/3 38/54/3
f 71/42/3 73/112/3 61/113/3 39/106/3
f 3/114/3 9/115/3 68/116/3 69/117/3
f 56/118/4 34/119/4 35/120/4 58/121/4
f 6/10/6 33/30/6 36/29/6 12/11/6
f 6/122/5 21/96/5 42/63/5 33/62/5
f 69/123/6 7/124/6 14/125/6 70/126/6
f 22/91/5 44/90/5 52/127/5 53/128/5
f 43/46/3 51/129/3 50/130/3 32/89/3
f 31/88/4 32/87/4 50/131/4 49/132/4
f 47/13/3 54/16/3 58/133/3 59/134/3
f 55/135/2 57/136/2 10/137/2 8/138/2
f 25/100/2 47/139/2 46/140/2 27/101/2
f 43/46/3 27/45/3 46/141/3 51/129/3
f 69/123/6 70/126/6 13/142/6 3/143/6
f 29/97/5 45/144/5 52/127/5 44/90/5
f 63/145/2 64/146/2 57/136/2 55/135/2
f 45/83/2 48/84/2 64/146/2 63/145/2
f 49/85/3 65/108/3 64/109/3 48/86/3
f 34/119/4 4/92/4 9/95/4 35/120/4
f 60/18/4 65/147/4 66/148/4 62/19/4
f 71/42/3 62/41/3 66/149/3 73/112/3
f 34/24/5 56/150/5 74/151/5 72/25/5
f 55/152/5 72/25/5 74/151/5 63/153/5
f 53/98/4 56/118/4 58/121/4 54/99/4
f 37/8/2 39/7/2 61/154/2 59/155/2
f 37/156/3 35/157/3 9/158/3 3/159/3
f 7/160/3 69/117/3 68/116/3 10/49/3
f 8/138/1 10/137/1 68/94/1 67/93/1
f 8/161/5 67/26/5 72/25/5 55/152/5
f 56/150/5 53/128/5 52/127/5 74/151/5
f 73/112/3 66/149/3 50/130/3 51/129/3
f 65/147/4 49/132/4 50/131/4 66/148/4
f 59/155/2 61/154/2 46/140/2 47/139/2
f 73/112/3 51/129/3 46/141/3 61/113/3
f 63/153/5 74/151/5 52/127/5 45/144/5
f 78/162/8 77/163/8 81/164/8 82/165/8
f 80/166/8 79/167/8 76/168/8 75/169/8
f 25/170/9 80/171/9 75/172/9 24/173/9
f 58/174/10 77/175/10 78/176/10 59/177/10
f 35/178/4 81/179/4 77/180/4 58/181/4
f 24/182/4 75/183/4 76/184/4 18/185/4
f 37/186/11 82/187/11 81/188/11 35/189/11
f 19/190/2 79/191/2 80/192/2 25/193/2
