# Blender v2.90.1 OBJ File: 'smallRoom.blend'
# www.blender.org
mtllib smallRoom.mtl
o Cube
v 5.660940 0.042641 -1.297186
v 6.011090 -0.088877 -6.011090
v 5.660940 0.042641 1.297186
v 6.011090 -0.088877 6.011090
v -2.695289 2.402924 -5.660940
v -6.011090 -0.088877 -6.011090
v -5.660940 0.047711 5.660940
v -6.011090 -0.088877 6.011090
v 6.011090 0.047711 6.011090
v -6.011090 0.047711 6.011090
v 6.011090 0.047711 -6.011090
v -6.011090 0.047711 -6.011090
v 6.011090 8.474659 6.011090
v -6.011090 8.474659 6.011090
v 6.011090 8.474659 -6.011090
v -6.011090 8.474659 -6.011090
v 5.660940 4.749592 1.297186
v -5.660940 8.474659 5.660940
v 5.660940 4.749592 -1.297186
v -2.695289 6.119446 -5.660940
v 0.613846 11.279858 0.613846
v -0.613846 11.279858 0.613846
v 0.613846 11.279858 -0.613846
v -0.613846 11.279858 -0.613846
v 0.578089 11.279858 0.578089
v -0.578089 11.279858 0.578089
v 0.578089 11.279858 -0.578089
v -0.578089 11.279858 -0.578089
v 2.695289 2.402924 -5.660940
v 5.660940 0.047711 5.660940
v 5.660940 8.474659 5.660940
v 2.695289 6.119446 -5.660940
v 5.218055 0.020737 -1.113597
v 5.218055 0.020737 1.113597
v 5.218055 4.580280 1.113597
v 5.218055 4.580280 -1.113597
v 5.218055 0.042641 -1.297186
v 5.218055 0.042641 1.297186
v 5.218055 4.749592 1.297186
v 5.218055 4.749592 -1.297186
v 5.397420 0.020737 -1.113597
v 5.397420 0.020737 1.113597
v 5.397420 4.580280 1.113597
v 5.397420 4.580280 -1.113597
v -5.660940 0.047711 -5.660940
v 5.660940 0.047711 -5.660940
v -5.660940 8.474659 -5.660940
v 5.660940 8.474659 -5.660940
v -2.572639 2.525574 -5.317606
v 2.572639 2.525574 -5.317606
v -2.572639 5.996795 -5.317606
v 2.572639 5.996795 -5.317606
v -2.695289 2.402924 -5.317606
v 2.695289 2.402924 -5.317606
v -2.695289 6.119446 -5.317606
v 2.695289 6.119446 -5.317606
v -2.572639 2.525574 -5.566935
v 2.572639 2.525574 -5.566935
v -2.572639 5.996795 -5.566935
v 2.572639 5.996795 -5.566935
v 0.578089 11.169703 0.578089
v 0.298158 10.889771 0.298158
v -0.298158 10.889771 0.298158
v -0.578089 11.169703 0.578089
v 0.578089 11.169703 -0.578089
v 0.298158 10.889771 -0.298158
v -0.298158 10.889771 -0.298158
v -0.578089 11.169703 -0.578089
vt 0.578761 0.000000
vt 0.578761 0.282648
vt 0.298062 0.282648
vt 0.298062 0.000000
vt 0.578761 0.300131
vt 0.582147 0.300131
vt 0.582147 0.600261
vt 0.578761 0.600261
vt 0.212313 0.900391
vt 0.208926 0.900391
vt 0.208926 0.600261
vt 0.212313 0.600261
vt 0.000000 0.600261
vt 0.000000 0.300130
vt 0.298062 0.300130
vt 0.298062 0.600261
vt 0.791074 0.300130
vt 0.787687 0.300130
vt 0.787687 0.000000
vt 0.791074 0.000000
vt 0.510374 0.865426
vt 0.506988 0.865426
vt 0.506988 0.565295
vt 0.510374 0.565295
vt 0.791074 0.300130
vt 0.791074 0.600261
vt 1.000000 0.282648
vt 1.000000 0.565295
vt 0.791074 0.565295
vt 0.791074 0.282648
vt 0.996739 0.600261
vt 0.996739 0.882909
vt 0.787813 0.882909
vt 0.787813 0.600261
vt 0.000000 0.000000
vt 0.298062 0.000000
vt 0.164250 0.134741
vt 0.133812 0.134741
vt 0.298062 0.300130
vt 0.164250 0.165390
vt 0.298062 0.282648
vt 0.578761 0.282648
vt 0.452744 0.409540
vt 0.424079 0.409540
vt 0.298062 0.565295
vt 0.424079 0.438403
vt 0.298003 0.600261
vt 0.298003 0.734835
vt 0.289491 0.734835
vt 0.289491 0.600261
vt 0.278511 0.600261
vt 0.278511 0.717769
vt 0.267531 0.717769
vt 0.267531 0.600261
vt 0.000000 0.900391
vt 0.000000 0.600261
vt 0.578761 0.300130
vt 0.578761 0.000000
vt 0.134698 0.135633
vt 0.134698 0.164497
vt 0.133812 0.165390
vt 0.163363 0.135633
vt 0.163363 0.164497
vt 0.578761 0.565295
vt 0.452744 0.438403
vt 0.000000 0.300130
vt 0.227388 0.742952
vt 0.227388 0.714089
vt 0.230119 0.714089
vt 0.230119 0.742952
vt 0.691740 0.923540
vt 0.689127 0.963490
vt 0.649087 0.961487
vt 0.651700 0.921537
vt 0.578635 0.739003
vt 0.578635 0.674235
vt 0.578761 0.565295
vt 0.578761 0.847943
vt 0.671115 0.773969
vt 0.787813 0.773969
vt 0.787687 0.882909
vt 0.578761 0.882909
vt 0.671115 0.709201
vt 0.578761 0.600261
vt 0.787813 0.709201
vt 0.787687 0.600261
vt 0.271978 0.773370
vt 0.271978 0.717769
vt 0.276425 0.717769
vt 0.276425 0.773370
vt 0.278511 0.717769
vt 0.278511 0.600261
vt 0.289491 0.600261
vt 0.289491 0.717769
vt 0.570234 0.683350
vt 0.570234 0.748118
vt 0.559254 0.748118
vt 0.559254 0.683350
vt 0.559254 0.683350
vt 0.559254 0.748118
vt 0.548274 0.748118
vt 0.548274 0.683350
vt 0.574696 0.625480
vt 0.574696 0.569879
vt 0.575239 0.565295
vt 0.575239 0.630063
vt 0.570144 0.679123
vt 0.570144 0.565295
vt 0.574696 0.565842
vt 0.574696 0.683350
vt 0.514926 0.679123
vt 0.510374 0.683350
vt 0.514926 0.565295
vt 0.510374 0.565842
vt 0.281482 0.982273
vt 0.226264 0.982273
vt 0.226264 0.868445
vt 0.281482 0.868445
vt 0.267531 0.773370
vt 0.267531 0.717769
vt 0.271978 0.717769
vt 0.271978 0.773370
vt 0.222941 0.714089
vt 0.222941 0.827916
vt 0.218494 0.827916
vt 0.218494 0.714089
vt 0.222941 0.827916
vt 0.222941 0.714089
vt 0.227388 0.714089
vt 0.227388 0.827916
vt 0.849466 0.074037
vt 0.849466 0.208611
vt 0.791074 0.282648
vt 0.791074 0.000000
vt 0.941608 0.208611
vt 1.000000 0.282648
vt 0.941608 0.074037
vt 1.000000 0.000000
vt 0.570234 0.770008
vt 0.570234 0.683350
vt 0.576416 0.683350
vt 0.576416 0.770008
vt 0.510374 0.817924
vt 0.510374 0.683350
vt 0.518886 0.683350
vt 0.518886 0.817924
vt 0.548274 0.683350
vt 0.548274 0.776132
vt 0.539762 0.776132
vt 0.539762 0.683350
vt 0.531249 0.776132
vt 0.531249 0.683350
vt 0.539762 0.683350
vt 0.539762 0.776132
vt 0.301102 0.868488
vt 0.301102 0.996938
vt 0.298062 1.000000
vt 0.298062 0.865426
vt 0.387163 0.996938
vt 0.390204 1.000000
vt 0.387163 0.868488
vt 0.390204 0.865426
vt 0.212313 0.800747
vt 0.212313 0.714089
vt 0.218494 0.714089
vt 0.218494 0.800747
vt 0.525068 0.811800
vt 0.525068 0.683350
vt 0.531249 0.683350
vt 0.531249 0.811800
vt 0.525068 0.683350
vt 0.525068 0.811800
vt 0.518886 0.811800
vt 0.518886 0.683350
vt 0.246731 0.742952
vt 0.246731 0.714089
vt 0.249462 0.714089
vt 0.249462 0.742952
vt 0.256402 0.742952
vt 0.256402 0.714089
vt 0.259133 0.714089
vt 0.259133 0.742952
vt 0.622307 0.894652
vt 0.718520 0.893993
vt 0.718520 0.990375
vt 0.622307 0.991034
vt 0.237059 0.742952
vt 0.237059 0.714089
vt 0.239790 0.714089
vt 0.239790 0.742952
vn 0.0000 1.0000 0.0000
vn 0.0000 0.0000 1.0000
vn -1.0000 0.0000 0.0000
vn 0.0000 -1.0000 0.0000
vn 1.0000 0.0000 0.0000
vn 0.0000 0.0000 -1.0000
vn 0.4612 0.8873 0.0000
vn 0.0000 0.8873 -0.4612
vn -0.4832 -0.8755 0.0000
vn 0.0000 -0.8755 0.4832
vn 0.4832 -0.8755 0.0000
vn 0.0000 -0.8755 -0.4832
vn -0.4612 0.8873 0.0000
vn 0.0000 0.8873 0.4612
vn 1.0000 0.0002 0.0000
vn 0.0000 0.7071 -0.7071
vn -0.7071 0.7071 0.0000
vn 0.7071 0.7071 0.0000
vn 0.0000 0.7071 0.7071
usemtl Material
s off
f 46/1/1 45/2/1 7/3/1 30/4/1
f 4/5/2 9/6/2 10/7/2 8/8/2
f 8/9/3 10/10/3 12/11/3 6/12/3
f 6/13/4 2/14/4 4/15/4 8/16/4
f 2/17/5 11/18/5 9/19/5 4/20/5
f 6/21/6 12/22/6 11/23/6 2/24/6
f 10/7/2 9/6/2 13/25/2 14/26/2
f 30/27/6 7/28/6 18/29/6 31/30/6
f 7/31/5 45/32/5 47/33/5 18/34/5
f 13/35/7 15/36/7 23/37/7 21/38/7
f 15/36/8 16/39/8 24/40/8 23/37/8
f 48/41/9 31/42/9 25/43/9 27/44/9
f 47/45/10 48/41/10 27/44/10 28/46/10
f 32/47/1 20/48/1 55/49/1 56/50/1
f 19/51/6 1/52/6 37/53/6 40/54/6
f 12/11/3 10/10/3 14/55/3 16/56/3
f 9/19/5 11/18/5 15/57/5 13/58/5
f 25/59/1 26/60/1 22/61/1 21/38/1
f 27/62/1 25/59/1 21/38/1 23/37/1
f 26/60/1 28/63/1 24/40/1 22/61/1
f 28/63/1 27/62/1 23/37/1 24/40/1
f 18/64/11 47/45/11 28/46/11 26/65/11
f 31/42/12 18/64/12 26/65/12 25/43/12
f 16/39/13 14/66/13 22/61/13 24/40/13
f 14/66/14 13/35/14 21/38/14 22/61/14
f 25/67/3 27/68/3 65/69/3 61/70/3
f 62/71/1 66/72/1 67/73/1 63/74/1
f 3/75/15 1/76/15 46/77/15 30/78/15
f 17/79/3 3/80/3 30/81/3 31/82/3
f 19/83/3 17/79/3 31/82/3 48/84/3
f 1/85/3 19/83/3 48/84/3 46/86/3
f 35/87/4 36/88/4 44/89/4 43/90/4
f 3/91/2 17/92/2 39/93/2 38/94/2
f 17/95/1 19/96/1 40/97/1 39/98/1
f 1/99/4 3/100/4 38/101/4 37/102/4
f 34/103/5 33/104/5 37/105/5 38/106/5
f 35/107/3 34/108/3 38/109/3 39/110/3
f 36/111/3 35/107/3 39/110/3 40/112/3
f 33/113/3 36/111/3 40/112/3 37/114/3
f 41/115/3 42/116/3 43/117/3 44/118/3
f 33/119/1 34/120/1 42/121/1 41/122/1
f 36/123/2 33/124/2 41/125/2 44/126/2
f 34/127/6 35/128/6 43/129/6 42/130/6
f 29/131/2 5/132/2 45/133/2 46/134/2
f 5/132/2 20/135/2 47/136/2 45/133/2
f 20/135/2 32/137/2 48/138/2 47/136/2
f 32/137/2 29/131/2 46/134/2 48/138/2
f 50/139/3 52/140/3 60/141/3 58/142/3
f 5/143/4 29/144/4 54/145/4 53/146/4
f 29/147/5 32/148/5 56/149/5 54/150/5
f 20/151/3 5/152/3 53/153/3 55/154/3
f 50/155/2 49/156/2 53/157/2 54/158/2
f 49/156/2 51/159/2 55/160/2 53/157/2
f 51/159/2 52/161/2 56/162/2 55/160/2
f 52/161/2 50/155/2 54/158/2 56/162/2
f 51/163/5 49/164/5 57/165/5 59/166/5
f 52/167/4 51/168/4 59/169/4 60/170/4
f 49/171/1 50/172/1 58/173/1 57/174/1
f 27/175/2 28/176/2 68/177/2 65/178/2
f 28/179/5 26/180/5 64/181/5 68/182/5
f 62/71/16 63/74/16 64/183/16 61/184/16
f 66/72/17 62/71/17 61/184/17 65/185/17
f 63/74/18 67/73/18 68/186/18 64/183/18
f 67/73/19 66/72/19 65/185/19 68/186/19
f 26/187/6 25/188/6 61/189/6 64/190/6
